<?xml version="1.0" encoding="UTF-8"?>
<svg width="76mm" height="76mm" version="1.1" viewbox="0 0 250 260" xmlns="http://www.w3.org/2000/svg">
 <title>austromorph.space</title>
 <g>
  <path d="m182.48 4.1124-0.6277 2.3748-2.1916 8.277-6.0478 8.834-5.2059-1.8381-12.094 0.25815-10.288-6.7345-2.86 10.722-3.6463-1.8124-5.4223 5.9547-2.2366 6.2374-8.4837 3.5713-7.3986 17.007 0.84837 12.508 0.60521 2.2902-18.508-10.416-3.3003 8.7665-21.67 5.84-11.183 1.5639-2.2687-2.9232-14.168-5.9311-4.7324 0.98655-5.1363 8.4976-1.0465 0.22923-10.982-14.301-3.7266 7.2529-7.0826-0.17996-0.76696 13.995 1.1601 13.238 10.817 7.8463 13.614 3.3131 2.0567-2.1938 2.1209 1.2297 9.8066 3.6709 11.936 0.30957 10.545-6.4656 19.606-3.3474-0.73054 4.4111 8.4087 11.304 24.933 5.9204 46.778 9.9641 13.533-11.15 14.774-0.87194 21.254-3.145-0.95763-9.7798 4.1851-3.4278 14.745-4.7978-4.1079-3.1482 0.20887-5.2755-2.86-12.571-0.8623-7.6621 9.2957-2.0395 12.612-0.03642-4.2076-10.73 4.35-7.4157-10.805-16.643-4.7914-19.345-26.658-3.778-20.457-7.1233z" fill="#fff"/>
  <path d="m256.29 66.614 2.0856-6.6231-10.462-37.463-42.32-4.5396-15.911-0.59236-6.2878-0.78517-4.3768 11.638-10.8 5.1984-19.399-4.0822-1.986 9.5313-6.4388 0.10283-4.0383 9.4017-11.612 6.5202zm-241.03 16.628 3.8466 5.1556 0.8473 12.865 0.33314 0.58485-2.1606 1.1612 13.379 0.28922-2.1531 1.6871 4.9381-1.189 0.08034 2.0716 12.988-2.363-1.6368 1.6892 6.8373 2.0084 5.2413 0.045 46.779-4.6307 3.6302 3.8134 28.249 6.8673 16.926 6.8448 14.866 5.012 6.9584-9.2228 14.384 2.6169 25.866 0.91478 2.5719-8.488-96.263-27.962-0.11033 5.0827 9.2871 4.9317-2.6372 0.69413 1.3004 1.5682-14.024-6.6359-13.156-7.8324-2.5012 1.1911 2.2066 3.3817-17.877 0.53237-8.4194 1.6614-7.3932 0.85694-12.584 3.7855-1.6946-1.1676 2.0974-2.8183-0.59557-0.93299-6.8877-0.52809-3.9783-1.9249-7.0323 12.699 1.4611-4.1133-2.8375 1.1033-6.7323-12.444-7.073-3.4942z" fill="#ed1c24"/>
  <path d="m184.58 7.2124-2.3159 8.7504-7.5475 11.022-6.757-2.3855-12.455 0.26565-7.7596-5.0774-2.7422 10.285-4.831-2.3994-3.6077 3.9633-2.4637 6.8769-8.5897 3.612-6.6723 15.334 0.78195 11.547 2.2538 8.4955-21.466-12.083-2.6576 7.0505-23.881 6.4356-2.9007 1.1933 0.26565-0.9105-9.6866 1.3561-2.815-3.6281-12.677-5.3109-2.6769 0.56344-5.1277 8.4783-3.973 0.87408-9.3642-12.199-2.5065 4.8771-6.11-0.15639-0.60629 11.052 1.0273 11.746 9.3267 6.7666 11.479 2.7925 2.4594-2.6244 3.8562 2.2291 9.1414 3.4267 10.635 0.27101 10.296-6.3092 24.047-4.1047-1.1858 7.1394 7.0783 9.5142 23.901 5.6751 45.421 9.6748 13.194-10.871 15.564-0.91692 18.473-2.7347-0.84302-8.6047 5.7672-4.7228 10.139-3.3003-2.3855-1.8253 1.4632-0.98977 0.17139-4.3211-2.8108-12.357-1.1676-10.353 12.072-2.6522 8.789-0.02571-3.2007-8.1591 4.1626-7.0933-10.111-15.572-4.4486-17.959-25.044-3.5467-20.433-7.1137zm-0.12317 9.9973 1.9849-7.2401 5.5219 0.64378 20.405 7.1083 23.605 3.3688 4.0876 16.518 9.5517 14.825-3.9998 6.8062 2.3062 5.8807-5.3773 0.03642-14.554 3.1642 1.4482 12.749 2.7551 12.169-0.10288 2.7165-3.3056 2.2398 1.3561 1.0358-5.8101 1.8928-7.3911 5.9493 0.73376 7.5593-15.998 2.3748-16.269 0.95014-12.894 10.626-44.207-9.422-22.987-5.4566-5.8893-7.9181 1.5864-9.5667-27.761 4.7324-10.322 6.2235-9.2732-0.17781-8.7472-3.2596-5.3966-3.1396-2.8279 3.0207-9.376-2.1959-8.1934-5.9482-0.92442-10.416 0.47346-8.4355 5.2509 0.13283 1.4182-2.7593 7.9235 10.326 2.7036-0.59343-1.1654 2.6458 2.2216 1.159 7.9428-13.123 0.84944-0.1821 11.344 4.7539 3.3035 4.2579 7.2786-1.0198-0.6427 2.1916 7.5775-3.1278 24.971-6.7163 2.0781-5.5187 24.107 13.563-3.7395-14.013-0.70163-10.698 6.0222-13.848 8.6979-3.6548 2.4883-7.2561 2.1563-2.3737 5.885 2.9243 2.6415-9.8987 5.5058 3.6013 12.773-0.26779 8.1441 2.8675z" fill="#231f20"/>
  <path d="m66.763 170.65c0.18746-4.0747 0.37491-8.0285 0.37491-11.543 0-2.6972-0.24637-4.8942-0.50024-5.8936-1.9999 3.5113-4.8149 10.157-7.5046 17.437zm-17.642 19.827h-6.442c-1.6271 0-2.3759-0.62878-2.3759-1.881 0-0.43919 0.05999-0.94263 0.24744-1.5704 5.0688-18.381 12.95-34.947 19.458-43.606h18.077c1.2533 4.3961 2.0031 10.92 2.0031 18.636 0 7.2165-0.62664 15.811-1.6271 24.969-0.25066 2.1959-1.3754 3.4524-3.5638 3.4524h-6.6349c-2.1873 0-3.4363-1.2576-3.1878-3.4513 0.24851-2.0716 0.49917-4.2654 0.74982-6.5856h-10.071c-0.74982 2.3202-1.4407 4.5793-1.9399 6.5856-0.5613 2.1938-2.4412 3.4513-4.695 3.4513m64.941-43.605c0.43918-2.1938 1.941-3.4513 4.1283-3.4513h6.5695c1.8799 0 2.815 0.88051 2.815 2.3855 0 0.31492-0.06 0.69198-0.12318 1.0658l-5.3184 25.224c-2.6265 12.42-8.8232 18.883-22.272 18.883-10.322 0-15.139-4.7078-15.139-13.236 0-1.9463 0.37598-4.7078 0.81409-6.6541l5.0688-24.216c0.43597-2.1938 1.9367-3.4513 4.1272-3.4513h6.5663c1.881 0 2.8161 0.88051 2.8161 2.3855 0 0.31492-0.061 0.69198-0.12533 1.0658l-5.3162 25.224c-0.12319 1.0037-0.50131 2.4433-0.50131 3.6998 0 2.6994 0.69198 4.8953 3.8798 4.8953 3.6891 0 5.5037-3.3292 6.6316-8.5951zm11.763 40.092c0-0.31493 0.06-0.62879 0.12532-1.0058l0.56129-2.7604c0.37599-1.942 1.6892-3.7652 3.4417-3.7652 0.18745 0 0.43918 0 0.68555 0.0653 2.5044 0.62664 5.5701 1.1922 7.7607 1.1922h1.5018c3.4406 0 5.629-1.5061 5.629-4.2054 0-2.1948-0.93942-2.949-3.8798-4.3886l-2.9372-1.4461c-4.1315-2.1316-8.322-5.6451-8.322-11.794 0-10.54 8.5694-15.934 20.019-15.934h1.7492c1.8167 0 5.1931 0.18852 8.0102 0.68555 1.6871 0.31493 2.6886 1.1944 2.6886 2.8258 0 0.31171-0.0621 0.69197-0.12426 1.0037l-0.62663 2.8225c-0.43918 2.0706-1.7492 3.7652-3.627 3.7652-0.18746 0-0.37813 0-0.56665-0.06-2.1231-0.44562-4.6243-0.75412-7.0023-0.75412h-1.4418c-3.6913 0-5.3762 1.5029-5.3762 3.702 0 1.4407 1.1858 2.5687 3.4363 3.6345l2.8804 1.5082c5.0667 2.5087 8.8222 6.1485 8.8222 12.234 0 9.7884-6.1335 16.69-19.331 16.69h-1.9399c-2.7529 0-6.5074-0.31384-9.5099-1.068-1.626-0.43919-2.6265-1.3176-2.6265-2.9479m63.06-32.751-6.8802 32.813c-0.5013 2.1938-1.9388 3.4503-4.1326 3.4503h-6.6295c-1.8146 0-2.815-0.87837-2.815-2.3823 0-0.31385 0.0632-0.6909 0.12533-1.068l6.8834-32.813h-6.1935c-1.8178 0-2.815-0.8773-2.815-2.3823 0-0.31493 0.06-0.68876 0.12533-1.069l0.93513-3.8884c0.50132-2.1938 1.9388-3.4513 4.1305-3.4513h25.71c1.8799 0 2.815 0.87835 2.815 2.3834 0 0.31386-0.06 0.69413-0.12533 1.068l-0.87193 3.8884c-0.50131 2.1948-2.0052 3.4513-4.1936 3.4513zm26.523 12.488c4.379 0 8.0702-2.9511 8.0702-7.5946 0-3.6998-1.6892-4.8931-5.3837-4.8931h-2.3137l-2.6244 12.488zm15.704 20.702c0 1.9485-1.3154 3.0743-3.4406 3.0743h-5.945c-2.1906 0-3.4438-1.1944-3.6313-3.4513-0.30957-3.3881-1.249-7.9652-3.1867-10.037h-3.9398l-2.1306 10.037c-0.50132 2.1948-2.0031 3.4513-4.1904 3.4513h-6.6306c-1.8167 0-2.7529-0.87944-2.7529-2.3834 0-0.31386 0.0621-0.6909 0.12747-1.068l8.5694-40.152c0.43597-2.1948 1.9367-3.4513 4.1272-3.4513h12.698c10.259 0 16.394 4.6425 16.394 13.24 0 8.0927-3.8798 13.487-10.262 16.438 2.5023 3.0743 3.7555 9.5367 4.1936 13.925zm34.406-18.758 0.49917-2.1938c0.43596-2.137 0.93727-5.3987 0.93727-7.3418 0-4.394-1.4354-5.8979-4.3757-5.8979-5.885 0-8.1966 5.8347-9.5099 12.045l-0.50131 2.1948c-0.49917 2.1316-0.99941 5.3987-0.99941 7.3397 0 4.394 1.5007 5.899 4.3779 5.899 5.1909 0 8.1945-5.899 9.572-12.045m-27.653 7.1544c0-2.4508 0.50131-6.216 1.0026-8.3477l0.49917-2.1948c3.1932-14.368 10.449-22.334 25.151-22.334 11.508 0 16.139 5.6462 16.139 15.183 0 2.0031-0.50131 5.96-1.0026 8.3445l-0.37492 2.1959c-2.8161 14.491-10.26 22.335-25.023 22.335-11.449 0-16.392-5.899-16.392-15.182" fill="#ed1c24"/>
  <g>
   <path d="m72.938 200.65c1.4386-1.6314 2.7518-2.3823 4.9424-2.3823h6.381c1.8124 0 2.815 0.87837 2.815 2.3823 0 0.31386-0.0632 0.6909-0.12854 1.068l-8.5694 40.09c-0.4981 2.197-1.9388 3.4492-4.1272 3.4492h-6.6316c-1.8156 0-2.815-0.8805-2.815-2.3834 0-0.31065 0.06213-0.69092 0.12533-1.0658l5.1931-24.153-9.6341 12.359c-0.50131 0.68877-1.2533 0.8773-2.0031 0.8773h-1.6271c-0.75089 0-1.3133-0.24852-1.5639-0.8773l-4.4411-12.359-5.1909 24.213c-0.50345 2.1959-2.0052 3.4513-4.1926 3.4513h-6.6306c-1.8135 0-2.7529-0.87729-2.7529-2.3823 0-0.31492 0.06213-0.68876 0.12426-1.069l8.5726-40.15c0.43918-2.1959 1.9388-3.4503 4.1272-3.4503h7.0687c2.1927 0 3.4406 0.69091 4.003 2.3823l4.9445 14.683zm41.605 22.839 0.4981-2.1948c0.43918-2.1359 0.94048-5.3987 0.94048-7.3418 0-4.394-1.4386-5.8968-4.379-5.8968-5.8829 0-8.1956 5.8336-9.5099 12.045l-0.50131 2.1938c-0.4981 2.1349-0.99941 5.3987-0.99941 7.3397 0 4.394 1.5007 5.9 4.379 5.9 5.1898 0 8.1956-5.9 9.572-12.045m-27.651 7.1533c0-2.4508 0.49917-6.2128 1.0026-8.3477l0.49917-2.1938c3.19-14.368 10.446-22.334 25.149-22.334 11.51 0 16.142 5.6451 16.142 15.183 0 2.0052-0.50345 5.96-1.0058 8.3444l-0.37276 2.1948c-2.815 14.491-10.262 22.336-25.023 22.336-11.449 0-16.391-5.9-16.391-15.183m62.81-9.0975c4.3758 0 8.0681-2.9511 8.0681-7.5936 0-3.6998-1.6871-4.8942-5.3816-4.8942h-2.3137l-2.6265 12.488zm15.703 20.703c0 1.9474-1.3176 3.0743-3.4417 3.0743h-5.9429c-2.1938 0-3.4438-1.1944-3.6313-3.4513-0.31065-3.3892-1.2511-7.9663-3.1889-10.037h-3.9398l-2.1284 10.037c-0.5013 2.1938-2.0031 3.4513-4.1926 3.4513h-6.6306c-1.8167 0-2.7529-0.88051-2.7529-2.3834 0-0.31386 0.0621-0.69092 0.1264-1.068l8.5694-40.153c0.43703-2.1959 1.941-3.4513 4.1283-3.4513h12.7c10.259 0 16.392 4.6435 16.392 13.24 0 8.0938-3.8798 13.488-10.262 16.439 2.5023 3.0743 3.7555 9.5367 4.1937 13.925zm24.835-18.257c6.381 0 9.571-3.1975 9.571-9.7884 0-2.9457-1.2501-5.1427-5.629-5.1427h-2.815l-3.19 14.93zm-5.8154 17.878c-0.50346 2.1959-2.0031 3.4524-4.1936 3.4524h-6.381c-1.8146 0-2.754-0.87836-2.754-2.3834 0-0.31385 0.0643-0.68876 0.12747-1.068l8.5715-40.15c0.43598-2.197 1.9378-3.4513 4.1262-3.4513h13.702c10.008 0 15.953 5.1427 15.953 13.988 0 14.43-8.6337 22.524-24.773 22.524h-2.8804zm65.124 1e-3c-0.50132 2.1948-1.9378 3.4513-4.1283 3.4513h-6.6948c-1.7514 0-2.6919-0.87943-2.6919-2.3823 0-0.31493 0-0.69199 0.0653-1.069l3.1257-14.679h-10.947l-3.0657 14.679c-0.49917 2.1948-2.0031 3.4513-4.1904 3.4513h-6.6306c-1.8167 0-2.7529-0.87943-2.7529-2.3823 0-0.31493 0.0621-0.69199 0.12748-1.069l8.5694-40.152c0.43812-2.1959 1.9367-3.4513 4.1272-3.4513h6.5695c1.8746 0 2.815 0.88265 2.815 2.3855 0 0.31385-0.0632 0.6909-0.12318 1.0658l-3.1278 14.679h10.945l3.1278-14.679c0.49917-2.1959 1.9399-3.4513 4.1915-3.4513h6.5684c1.8124 0 2.815 0.88265 2.815 2.3855 0 0.31385-0.0621 0.6909-0.12533 1.0658z"/>
   <path d="m32.405 278.67c-0.07498 0.92763-0.47132 1.5885-1.1933 1.9784-0.72197 0.38669-1.4686 0.48953-2.2484 0.30422-0.73911-0.18639-1.414-0.56344-2.0245-1.1387-0.6095-0.5763-0.88051-1.2918-0.80445-2.1424 0.07177-0.96406 0.43276-1.6432 1.0819-2.0331 0.64699-0.38991 1.3968-0.53023 2.2495-0.4199a4.1165 4.1165 0 0 1 2.1627 1.2244c0.59129 0.63305 0.84944 1.3754 0.7766 2.227m3.3753-18.503a4.6221 4.6221 0 0 0-0.62664 3.5916 4.9274 4.9274 0 0 0 0.72411 1.6271c0.30528 0.45739 0.65663 0.83444 1.0712 1.1986 0.37277 0.32885 0.76375 0.59771 1.2019 0.83444 0.54416 0.29137 1.1183 0.52488 1.6925 0.75411 1.4761 0.59343 3.0378 0.95335 4.5718 1.355 0.43918 0.1157 0.88158 0.21103 1.31 0.35136 0.58914 0.19387 1.1783 0.38562 1.7567 0.61056a9.2335 9.2335 0 0 1 2.1006 1.2972c0.18638 0.18424 0.35135 0.37705 0.50345 0.58914 0.03856 0.0729 0.0707 0.14247 0.1039 0.21853l0.03749 0.19816c0 0.0482-0.0033 0.0964-0.0033 0.14032-0.015 0.0782-0.03214 0.15639-0.04927 0.23138a9.4649 9.4649 0 0 1-0.42847 0.93085 7.7307 7.7307 0 0 1-0.59986 0.87729 8.1163 8.1163 0 0 1-0.92978 0.83873 9.1543 9.1543 0 0 1-1.7021 0.85694 6.9894 6.9894 0 0 1-1.9067 0.26779 8.9336 8.9336 0 0 1-0.81409-0.0589 4.0972 4.0972 0 0 1-0.90514-0.23351 4.0769 4.0769 0 0 1-0.74447-0.44989c-0.03535-0.0376-0.0707-0.0729-0.10283-0.11354-0.14782-0.62557-0.20031-1.2715-0.32564-1.9046-0.09854-0.49595-0.33635-1.0112-0.77981-1.295-0.41776-0.26352-0.9105-0.25387-1.3433-0.03-1.0358 0.5206-1.5264 2.016-1.279 3.0989 0.10283 0.44239 0.17139 0.88479 0.25066 1.3325 0.09854 0.53559 0.25815 1.0712 0.45953 1.5789 0.10712 0.27637 0.28065 0.52274 0.44775 0.76054 0.15318 0.21744 0.39633 0.38027 0.5945 0.55915 0.41347 0.37705 0.89764 0.58808 1.414 0.79374 0.45311 0.18317 0.90193 0.30207 1.3807 0.37705 0.47132 0.0707 0.97477 0.0503 1.4461 0.0557a8.4516 8.4516 0 0 0 1.3283-0.0803c0.57415-0.075 1.1204-0.2785 1.6603-0.4756 1.9281-0.68555 3.6334-2.1188 4.6917-3.8755 0.27851-0.4649 0.52488-0.95549 0.76589-1.4482 0.25066-0.5056 0.40383-1.053 0.5538-1.5939 0.15318-0.53559 0.19602-1.114 0.19817-1.671 0.0074-0.75411-0.17032-1.4407-0.40276-2.1488-0.16817-0.50024-0.50881-0.97369-0.8398-1.3829-0.3492-0.42954-0.81409-0.7841-1.2533-1.1162-0.8623-0.66413-1.8928-1.0905-2.8975-1.4804a19.597 19.597 0 0 0-2.0931-0.68877c-0.75946-0.21102-1.5243-0.41454-2.288-0.61807-0.69948-0.19173-1.3936-0.4124-2.0856-0.62342a13.231 13.231 0 0 1-1.1462-0.4124c-0.7134-0.31385-1.3925-0.64914-2.0042-1.144a5.2059 5.2059 0 0 1-0.57415-0.66841 4.7175 4.7175 0 0 1-0.10498-0.23139c0.0074-0.0578 0.01929-0.11033 0.03213-0.16603 0.03536-0.0857 0.0707-0.16603 0.10712-0.24637 0.19281-0.31599 0.40705-0.61057 0.63735-0.90193 0.31385-0.34491 0.62128-0.6909 0.96298-1.0058 0.73376-0.67805 1.4675-1.3293 2.2709-1.9249 1.3379-0.89764 2.7486-1.6817 4.2654-2.2345-0.0053 0-0.0074 0-0.01286 2e-3a20.738 20.738 0 0 1 2.2313-0.57309c0.79374-0.15317 1.596-0.22173 2.4037-0.25921 1.7439-0.0857 3.492-0.0771 5.2327-0.0857 0.23352 0 0.2785-0.50989 0.0053-0.50989-1.0048 2e-3 -2.0127 2e-3 -3.0175 0.015-1.0658 0.015-2.1316 0.0107-3.1932 0.0836-1.9045 0.13497-3.7748 0.56772-5.554 1.2511a35.566 35.566 0 0 0-4.5311 2.1316c-0.6245 0.34706-1.2415 0.70161-1.8585 1.0637-0.14996 0.0857-0.29564 0.17567-0.44025 0.2678-0.61486 0.40597-1.1612 0.88586-1.5768 1.5114m6.1175-2.7176-0.03963 0.031 0.03963-0.031m16.831 2.0963a786.77 786.77 0 0 0-0.69519 3.9162c-0.24101 1.3647-0.48631 2.7304-0.64913 4.1047-0.22066 1.8531-0.27101 3.7105-0.31814 5.568-0.02571 1.0069-0.03213 2.0106-0.0407 3.0164-0.0043 0.53237 0.01286 1.0658 0.015 1.5982 0.0074 0.46489-0.0096 0.92549 0.0225 1.3882 0.0225 0.34384 0.03856 0.68019 0.08784 1.0176 0.0482 0.31921 0.21638 0.59986 0.39634 0.8548 0.08569 0.14353 0.19067 0.16282 0.32349 0.0674 0.21745-0.10288 0.34813-0.19816 0.49596-0.40491 0.18853-0.25601 0.39098-0.75838 0.47132-1.053 0.19602-0.70161 0.316-1.385 0.42311-2.1038 0.14996-1.008 0.17889-2.0352 0.22602-3.0561l0.03213-0.50024c0.02143-0.24422 0.18317-1.9335-0.51631-1.5414-0.08248 0.0932-0.16282 0.1821-0.23994 0.27209a4.2311 4.2311 0 0 0-0.44882 1.0155 7.3483 7.3483 0 0 0-0.31814 1.9774c-0.01821 0.43275-0.02571 0.86229-0.03213 1.295-0.11569-0.65127-0.14354-1.3283-0.19817-1.9817-0.03213-0.7359-0.08356-1.4718-0.09106-2.2066-0.0021-0.62128-0.0096-1.2383-0.015-1.8542-0.0074-0.77447 0.02999-1.5511 0.0707-2.3277l-0.01071 0.20032c0.0707-1.1729 0.20566-2.3373 0.38348-3.4985l-0.0043 0.0482c0.0021-0.031 0.0074-0.0579 0.01178-0.0889 0.0053-0.0396 0.01286-0.0803 0.02143-0.11997a0.82266 0.82266 0 0 0-0.01286 0.0824c0.30314-1.8746 0.64163-3.7448 0.97156-5.613 0.015-0.0953 0.13068-0.6127-0.05463-0.6502a0.11462 0.11462 0 0 0-0.07499 0.0118c-0.13604 0.0932-0.22066 0.48203-0.23352 0.56557m-0.617 5.7233-0.0074 0.0407 0.01607-0.0782-0.0086 0.0374"/>
   <path d="m56.237 260.82c-0.1821 0.33741-0.27315 0.74981-0.35349 1.114a6.0575 6.0575 0 0 0-0.11783 0.84409c0.0021-0.0246-0.03749 0.67591 0.10498 0.62343 1.5639-0.53988 3.1278-1.0626 4.6917-1.5886 1.4943-0.50559 3.0132-0.78623 4.5846-0.59557 1.4664 0.17889 2.8097 1.0958 3.7845 2.1638 0.11033 0.13926 0.21852 0.27851 0.316 0.42311a9.135 9.135 0 0 1-2.0802 1.6314c-0.9105 0.4424-1.8724 0.78839-2.8697 0.96192-0.42633 0.0707-0.86444 0.0879-1.2929 0.11568-0.98762 0.0536-1.9731 0.0857-2.9575 0.12855a0.56237 0.56237 0 0 0-0.38348 0.40705c-0.316 0.57093-0.47453 1.279-0.60736 1.9078a10.534 10.534 0 0 0-0.20352 1.4482c-0.0043 0.0171-0.0889 1.1012 0.1821 1.0733 1.4332-0.1489 2.8815-0.25922 4.3061-0.49274 0.55594-0.091 1.0819-0.27207 1.6132-0.4531a11.901 11.901 0 0 0 1.8146-0.79589c0.68448-0.37277 1.3004-0.91585 1.8553-1.4536 0.59879-0.58272 1.0669-1.2897 1.4911-2.0031 0.29779-0.49487 0.4756-1.1258 0.63414-1.6796 0.21531-0.77874 0.38027-1.626 0.42311-2.4348a6.3124 6.3124 0 0 0-0.09747-1.3925c-0.05463-0.31921-0.28279-0.63414-0.45846-0.89979-0.81195-1.2104-2.1734-1.8778-3.5692-2.1424-0.79267-0.15318-1.6496 0.0204-2.4294 0.17674a20.791 20.791 0 0 0-2.7144 0.75411c-1.8167 0.63092-3.6291 1.2865-5.4416 1.9228a0.33635 0.33635 0 0 0-0.22495 0.23566m13.62 4.3704c0 0.0236-0.0033 0.0493-0.0053 0.0739 0.0021-0.0246 0.0021-0.0503 0.0053-0.0728m8.142-4.9874c-1.1408 1.2318-2.1209 2.6265-2.9661 4.0726-1.3582 2.332-2.0052 5.0067-2.4862 7.6407-0.23352 1.2768-0.46596 2.5537-0.70162 3.8337-0.19067 1.0358-0.35884 2.0738-0.5388 3.1118-0.0482 0.30421-0.06749 0.61057-0.0557 0.91692 0.015 0.16603 0.03213 0.51523 0.27315 0.32992 0.14032-0.18424 0.24637-0.39205 0.316-0.61593 0.19817-0.52487 0.29886-1.0819 0.39633-1.6368 0.08784-0.52273 0.17782-1.0455 0.26779-1.5682-0.0021 0.0128-0.0053 0.0224-0.0053 0.0321 0-9e-3 0.0033-0.0214 0.0053-0.0343 0.03-0.1821 0.0632-0.35991 0.09319-0.54094-0.02036 0.12533-0.04284 0.25173-0.06534 0.37706 0.34599-1.956 0.67163-3.9259 1.1172-5.8615 0.06534-0.24959 0.13604-0.49275 0.20888-0.73911 0.06213-0.18638 0.12747-0.36955 0.19817-0.55594 0.31278-0.68341 0.67591-1.3368 1.0744-1.9752 0.55915-0.82696 1.1783-1.6164 1.8553-2.348 0.65342-0.70376 1.3304-1.4 2.1745-1.867a4.3361 4.3361 0 0 1 2.016-0.36206 2.6479 2.6479 0 0 1 1.7299 0.77339c0.43597 0.62877 0.68341 1.3025 0.83659 2.0438 0.15532 1.2918 0.18103 2.5922 0.3085 3.8862 0.12854 1.3197 0.27851 2.6372 0.43918 3.9537a78.303 78.303 0 0 0 0.2378 1.8124 11.825 11.825 0 0 0-0.35884 1.6539c-0.02036 0.21853-0.04284 0.4349-0.06427 0.65341-0.03534 0.29672-0.01607 0.59129 0.05142 0.88052 0.42204 0.74874 0.84302 1.4921 1.249 2.2516 0.10712 0.20674 0.20567 0.57308 0.40062 0.70162 0.29029 0.18318 0.75411-1.43 0.7691-1.4932 0.13604-0.47989 0.23887-0.96727 0.3085-1.4654 0.05784-0.4349 0.18317-1.0883 0.01286-1.5286-0.36848-0.95013-0.57629-1.9378-0.7766-2.935-0.35884-2.2655-0.59664-4.5354-0.82052-6.8148a70.916 70.916 0 0 1-0.23244-3.4235 30.733 30.733 0 0 0-0.16282-2.0384c-0.14782-1.2372-0.54951-2.6651-1.7139-3.3035-0.82266-0.4499-1.986-0.22067-2.7979 0.10818a4.4882 4.4882 0 0 0-0.7841 0.41455c-0.68555 0.44988-1.249 1.054-1.8103 1.6603m-4.2429 9.6031-0.05356 0.22495 0.05356-0.22495m-1.2511 6.4785v2e-3c0.01071-0.0536 0.01821-0.11033 0.02786-0.16603-0.01071 0.0536-0.01714 0.11033-0.02786 0.16388"/>
   <path d="m71.103 272.86c3.4288-0.71661 6.8555-1.4782 10.307-2.0834 0.60414-0.10605 1.2179-0.16389 1.8317-0.23887a177.28 177.28 0 0 1 1.1804-0.1489c0.37384-0.0471 0.74447-0.13497 1.114-0.20352 0.66627-0.12319 1.3325-0.25065 1.9988-0.36955 0.70483-0.11997 1.4065-0.27101 2.1209-0.31921 0.40812-0.03 0.81945-0.0524 1.2308-0.0803 0.50345-0.0321 0.96941-0.49275 1.2329-0.87408a3.22 3.22 0 0 0 0.49917-2.393c-0.09854-0.49594-0.33421-1.0176-0.77982-1.3004-0.60628-0.38563-1.2586-0.16282-1.7674 0.26458-0.24316 0.20352-0.48096 0.40919-0.72626 0.60842-0.80231 0.47026-1.6121 0.92443-2.4144 1.3968-0.41026 0.24208-0.82159 0.4831-1.2319 0.72197-0.39634 0.23137-0.82052 0.4199-1.2318 0.62557-0.73161 0.3642-1.5104 0.66413-2.2752 0.96513-0.83766 0.33205-1.685 0.61914-2.5323 0.90728l0.06856-0.0247c-1.0605 0.29457-2.1231 0.59771-3.1964 0.8398-1.8071 0.40704-3.6109 0.80874-5.4234 1.1965a0.1746 0.1746 0 0 0-0.05784 0.0279c-0.17567 0.11247-0.1821 0.53558 0.05356 0.48202m25.153-9.0428c-0.62129 0.81945-1.0219 1.7771-1.4011 2.724-0.44561 1.1087-0.73161 2.3084-0.92121 3.4867-0.1821 1.1215-0.23566 2.242-0.10069 3.371 0.13711 1.1783 0.48631 2.3705 1.0905 3.3903a5.9182 5.9182 0 0 0 2.1552 2.107c0.79696 0.4424 1.7674 0.58058 2.664 0.5463 0.97263-0.046 1.9003-0.38348 2.7926-0.74447 0.76161-0.31171 1.5082-0.67911 2.2495-1.0337 0.74554-0.35134 1.4525-0.73375 2.1113-1.2265 0.33636-0.25708 0.62129-0.57094 0.82695-0.94264 0.0964-0.21102 0.18103-0.4199 0.2678-0.63306 0.26671-0.67698 0.41882-1.4311 0.51737-2.1498 0.09-0.66842 0.14997-1.3968-0.015-2.0631-0.10605-0.42847-0.26351-0.8398-0.38348-1.2672-0.0653-0.18317-0.16818-0.20567-0.30422-0.0643-0.0674 0.10173-0.13497 0.20995-0.20352 0.31279a6.7334 6.7334 0 0 0-0.4199 1.1515c-0.13818 0.50023-0.24316 1.008-0.31814 1.5232-7e-3 0.0782-0.0214 0.1564-0.03 0.24102-0.54952 0.40704-1.1462 0.74982-1.7567 1.0894 0.0514-0.0279 0.10711-0.0557 0.16068-0.0814-1.0433 0.5313-2.0909 1.0733-3.2114 1.4311a5.9664 5.9664 0 0 1-3.1707 0.16817c-1.1312-0.24851-1.9902-0.918-2.7315-1.7696-0.66734-0.90515-1.0487-1.9388-1.2715-3.0314a8.563 8.563 0 0 1-0.0782-0.98013 0.62128 0.62128 0 0 0 5e-3 -0.0653c2e-3 -0.0224 7e-3 -0.0429 0.0107-0.0653 0.015-0.0782 0.0321-0.15639 0.0493-0.23566l0.0321-0.11676c0.11569-0.33206 0.23566-0.65556 0.36956-0.98013 0.15532-0.34277 0.32349-0.67162 0.50881-0.99618 1.0273-1.5072 2.408-2.6415 4.0222-3.4835 1.3882-0.67806 2.8118-1.2843 4.2236-1.9046a0.32671 0.32671 0 0 0 0.2228-0.23565c0.18104-0.33206 0.2753-0.74232 0.35136-1.1065 0.0567-0.27851 0.0964-0.55594 0.11783-0.83767-3e-3 0.0321 0.03-0.6834-0.10606-0.62127-0.99511 0.43275-1.9817 0.873-2.9746 1.3025-1.0348 0.44776-2.0331 0.92764-2.9747 1.5457a9.8045 9.8045 0 0 0-2.3769 2.2452m3.4192-0.33956 0.045-0.0224-0.045 0.0224m-4.6768 5.0067c-0.0321 0.10604-0.0675 0.21423-0.10069 0.3192 0.0321-0.10497 0.0653-0.21423 0.10069-0.3192m-0.17781 0.41561a6.2589 6.2589 0 0 0-0.03 0.29565c4e-3 -0.0996 0.0171-0.19603 0.03-0.29565m17.312-9.7466c-0.45311 3.5949-0.93728 7.1865-1.2726 10.793a176.79 176.79 0 0 0-0.3342 4.4464 167.07 167.07 0 0 1-0.31493 4.349l-0.0632 0.77447c-0.0226 0.28921-0.0374 0.56771-0.0321 0.85907 0 0.4424 0.09 0.99084 0.32134 1.3722 0.10394 0.25922 0.2753 0.46489 0.50346 0.62342 0.17781 0.10069 0.35991 0.19174 0.56557 0.21853 0.28066 0.0557 0.5463 0.0107 0.79696-0.12319 0.301-0.14997 0.63414-0.47988 0.82267-0.74554 0.23566-0.34492 0.41776-0.71233 0.55914-1.099 0.16496-0.46274 0.30743-0.92441 0.36528-1.415 0.0578-0.5056 0.0931-0.98549 0.10497-1.4889 0.0107-0.25709 0.0107-0.51203 0.0214-0.7659 0.0493-1.3754 0.20245-2.7443 0.32242-4.1144 0.0824-0.96513-0.59451-2.2281-1.7064-2.0588-0.51203 0.0782-0.93193 0.45524-1.219 0.86443a2.8579 2.8579 0 0 0-0.31814 0.61378l-7e-3 -0.38241c-7e-3 -0.54094 0.0503-1.0819 0.0803-1.6218 0.045-0.73053 0.0857-1.4621 0.12854-2.1938 0 0.0246-5e-3 0.0503-8e-3 0.075 0.33635-2.9704 0.68019-5.9397 1.0498-8.9058 0.0139-0.10497 0-0.2635-0.12855-0.2935a0.15211 0.15211 0 0 0-0.11782 0.0279 0.29457 0.29457 0 0 0-0.11783 0.19067"/>
   <path d="m110.38 260.27c-0.23565 0.42097-0.35027 0.94691-0.44881 1.4118-0.0171 0.0803-0.31815 1.9281-0.0171 1.8649 2.5537-0.53772 5.1159-1.0605 7.6568-1.656a87.676 87.676 0 0 0 2.9275-0.75945c0.3792-0.10713 0.76054-0.20139 1.1408-0.30208a0.16175 0.16175 0 0 1 0.0321-9e-3 6.0018 6.0018 0 0 0 0 0.42526c0.0203 0.21851 0.0407 0.64806 0.3492 0.41776 0.51094-0.37813 1.0626-0.66413 1.4557-1.1719 0.29992-0.39205 0.44881-0.89979 0.58164-1.3658 0.19496-0.6984 0.29564-1.4 0.36849-2.1188 0 0 0.0428-1.0808-0.16818-0.98013-0.25065 0.11569-0.49917 0.23887-0.74661 0.36741a31.814 31.814 0 0 1-5.3773 1.9099c-2.4733 0.63842-4.9767 1.1354-7.4736 1.6668a0.60736 0.60736 0 0 0-0.10713 0.0471 0.43168 0.43168 0 0 0-0.17353 0.25173m14.046-3.2628v-2e-3 2e-3m-14.64 12.754c3.116-0.75839 6.2342-1.5125 9.3664-2.1959 0.60628-0.1339 1.2254-0.23139 1.8349-0.34279a40.632 40.632 0 0 1 1.6539-0.29028l1.083-0.16389c0.03 0.23566 0.0932 0.47024 0.19067 0.68876 0.19495 0.43704 0.5388 0.8216 1.0283 0.92228 0.4724 0.10068 0.96941-0.10288 1.31-0.43168 0.38348-0.36956 0.79482-0.70697 1.1729-1.0787 0.27852-0.2785 0.52916-0.59343 0.75197-0.91479 0.21852-0.32456 0.3642-0.67483 0.44346-1.0562 0.0279-0.25387 0.0579-0.50774 0.0825-0.76053a2.0674 2.0674 0 0 0-0.42847-1.4032c-0.38562-0.47239-0.96406-0.58379-1.5082-0.31707-0.48203 0.23566-0.88479 0.59557-1.3133 0.91478l-0.43704 0.32672c-0.88907 0.59557-1.7996 1.1847-2.7593 1.6614-0.26243 0.13069-0.52595 0.26459-0.78946 0.39526-0.20566 0.10069-0.40383 0.21638-0.61592 0.29886-0.57736 0.22924-1.1504 0.45204-1.7278 0.67913-1.1247 0.3567-2.2398 0.71768-3.3806 1.023-1.9806 0.52273-3.9655 1.038-5.9525 1.5382a0.17996 0.17996 0 0 0-0.0557 0.0246c-0.1746 0.11569-0.1821 0.54094 0.0503 0.48203m0.27959 8.4055a1.7996 1.7996 0 0 0-0.13926 0.5463c-9e-3 0.0943-0.0567 0.51737 0.14676 0.43168 2.1348-0.87515 4.2804-1.73 6.4206-2.5837 0.72412-0.28707 1.4761-0.51523 2.2109-0.77124 0.68127-0.23459 1.3786-0.42847 2.0674-0.63199-2e-3 0-4e-3 0-9e-3 3e-3 0.49917-0.15103 0.99727-0.29672 1.4943-0.44561 1.2629-0.37491 2.6062-0.59557 3.9269-0.56558a40.737 40.737 0 0 1 3.2114 0.23351c1.1097 0.11783 2.2173 0.22923 3.3281 0.32993 0.51845 0.045 1.0422 0.10288 1.5639 0.10288 0.14568 2e-3 0.29029 0 0.43382 2e-3 0.33314 0 0.62879-0.0643 0.94479-0.16817 0.7616-0.24637 1.4664-0.61593 2.2002-0.92228 0.24316-0.22388 0.42633-0.49489 0.5463-0.8066 0.31386-0.68126 0.49167-1.4675 0.56987-2.2152a4.6253 4.6253 0 0 0-0.0107-1.2618c-0.0429-0.13069-0.0879-0.26136-0.12962-0.39419-0.11782-0.19603-0.27421-0.23137-0.46381-0.0964-0.77982 0.39848-1.5243 0.86016-2.3384 1.1697-0.85694 0.17888-1.7503 0.15853-2.6201 0.18317-0.83123 0.0224-1.6635 0.0482-2.4937 0.0879-2.183 0.11354-4.3329 0.46596-6.381 1.2597-1.2286 0.47988-2.3512 1.1719-3.5488 1.7139-0.78518 0.35028-1.5639 0.70698-2.3534 1.0412a1431.7 1431.7 0 0 1-5.3087 2.2495c-1.0433 0.43917-2.0888 0.87193-3.1332 1.31a0.56022 0.56022 0 0 0-0.13496 0.19817"/>
  </g>
 </g>
</svg>
