<?xml version="1.0" encoding="UTF-8" standalone="no"?>
<!-- Created with Inkscape (http://www.inkscape.org/) -->

<svg
   xmlns:dc="http://purl.org/dc/elements/1.1/"
   xmlns:cc="http://creativecommons.org/ns#"
   xmlns:rdf="http://www.w3.org/1999/02/22-rdf-syntax-ns#"
   xmlns:svg="http://www.w3.org/2000/svg"
   xmlns="http://www.w3.org/2000/svg"
   xmlns:sodipodi="http://sodipodi.sourceforge.net/DTD/sodipodi-0.dtd"
   xmlns:inkscape="http://www.inkscape.org/namespaces/inkscape"
   width="36mm"
   height="36mm"
   viewBox="0 0 36 35.999999"
   version="1.1"
   id="svg1242"
   inkscape:version="0.92.4 5da689c313, 2019-01-14"
   sodipodi:docname="favicon.svg"
   inkscape:export-filename="/home/christoph/Dokumente/Projekte/austromorph.space/Website (post 2019)/austromorph.space/src/assets/img/icons/favicon-228x228.png"
   inkscape:export-xdpi="160.87"
   inkscape:export-ydpi="160.87">
  <defs
     id="defs1236" />
  <sodipodi:namedview
     id="base"
     pagecolor="#ffffff"
     bordercolor="#666666"
     borderopacity="1.0"
     inkscape:pageopacity="0.0"
     inkscape:pageshadow="2"
     inkscape:zoom="2.9096669"
     inkscape:cx="-88.665493"
     inkscape:cy="34.540034"
     inkscape:document-units="mm"
     inkscape:current-layer="layer1"
     showgrid="false"
     fit-margin-top="0"
     fit-margin-left="0"
     fit-margin-right="0"
     fit-margin-bottom="0"
     inkscape:window-width="1920"
     inkscape:window-height="1009"
     inkscape:window-x="0"
     inkscape:window-y="34"
     inkscape:window-maximized="1" />
  <metadata
     id="metadata1239">
    <rdf:RDF>
      <cc:Work
         rdf:about="">
        <dc:format>image/svg+xml</dc:format>
        <dc:type
           rdf:resource="http://purl.org/dc/dcmitype/StillImage" />
        <dc:title />
      </cc:Work>
    </rdf:RDF>
  </metadata>
  <g
     inkscape:label="Layer 1"
     inkscape:groupmode="layer"
     id="layer1"
     transform="translate(268.25455,-5.5553823)">
    <g
       id="g1266"
       transform="translate(0.72164445,-8.8612827)">
      <path
         id="path965"
         d="m -244.38055,23.277947 -0.0884,0.333313 -0.30851,1.161686 -0.85111,1.239717 -0.73277,-0.257865 -1.70223,0.03617 -1.44797,-0.945162 -0.40256,1.504817 -0.51315,-0.254248 -0.76326,0.835608 -0.31471,0.875399 -1.19424,0.501261 -1.04128,2.386935 0.11937,1.755448 0.0853,0.321427 -2.60501,-1.461926 -0.46457,1.230416 -3.04994,0.819589 -1.57407,0.219625 -0.31936,-0.410312 -1.99419,-0.832507 -0.66611,0.138493 -0.72295,1.192692 -0.14728,0.03204 -1.54564,-2.007114 -0.52452,1.018026 -0.99684,-0.02532 -0.108,1.964222 0.1633,1.857767 1.52238,1.101225 1.91617,0.465088 0.28938,-0.307992 0.29869,0.1726 1.38028,0.515214 1.68,0.04341 1.48415,-0.907438 2.75952,-0.469739 -0.10284,0.619084 1.18339,1.586466 3.50935,0.830957 6.5841,1.398364 1.90479,-1.564762 2.07946,-0.122473 2.99155,-0.441317 -0.13488,-1.372526 0.58911,-0.481107 2.07533,-0.673344 -0.57826,-0.441834 0.0295,-0.740523 -0.40257,-1.764236 -0.12143,-1.075386 1.30844,-0.286288 1.77509,-0.0052 -0.59222,-1.505851 0.61237,-1.040764 -1.52084,-2.335776 -0.67437,-2.71508 -3.75223,-0.5302 -2.87941,-0.999939 z"
         style="color:#000000;font-style:normal;font-variant:normal;font-weight:normal;font-stretch:normal;font-size:medium;line-height:normal;font-family:sans-serif;font-variant-ligatures:normal;font-variant-position:normal;font-variant-caps:normal;font-variant-numeric:normal;font-variant-alternates:normal;font-feature-settings:normal;text-indent:0;text-align:start;text-decoration:none;text-decoration-line:none;text-decoration-style:solid;text-decoration-color:#000000;letter-spacing:normal;word-spacing:normal;text-transform:none;writing-mode:lr-tb;direction:ltr;text-orientation:mixed;dominant-baseline:auto;baseline-shift:baseline;text-anchor:start;white-space:normal;shape-padding:0;clip-rule:nonzero;display:inline;overflow:visible;visibility:visible;opacity:1;isolation:auto;mix-blend-mode:normal;color-interpolation:sRGB;color-interpolation-filters:linearRGB;solid-color:#000000;solid-opacity:1;vector-effect:none;fill:#ffffff;fill-opacity:1;fill-rule:nonzero;stroke:none;stroke-width:0.79374999;stroke-linecap:butt;stroke-linejoin:miter;stroke-miterlimit:4;stroke-dasharray:none;stroke-dashoffset:0;stroke-opacity:1;color-rendering:auto;image-rendering:auto;shape-rendering:auto;text-rendering:auto;enable-background:accumulate"
         inkscape:connector-curvature="0" />
      <g
         transform="matrix(0.35277777,0,0,-0.35277777,-233.99135,32.049942)"
         id="g12">
        <path
           inkscape:connector-curvature="0"
           id="path14"
           style="fill:#ed1c24;fill-opacity:1;fill-rule:nonzero;stroke:none"
           d="m 0,0 0.832,2.635 -4.174,14.904 -16.885,1.806 -6.348,0.236 -2.509,0.312 -1.746,-4.63 -4.309,-2.068 -7.74,1.624 -0.792,-3.792 -2.569,-0.041 -1.611,-3.74 -4.633,-2.594 z" />
      </g>
      <g
         transform="matrix(0.35277777,0,0,-0.35277777,-267.91658,34.383602)"
         id="g16">
        <path
           inkscape:connector-curvature="0"
           id="path18"
           style="fill:#ed1c24;fill-opacity:1;fill-rule:nonzero;stroke:none"
           d="M 0,0 1.535,-2.051 1.873,-7.169 2.006,-7.402 1.144,-7.864 6.482,-7.979 5.623,-8.65 l 1.97,0.473 0.032,-0.824 5.182,0.94 -0.653,-0.672 2.728,-0.799 2.091,-0.018 18.664,1.842 1.448,-1.517 11.271,-2.732 6.753,-2.723 5.931,-1.994 2.776,3.669 5.739,-1.041 10.32,-0.364 1.026,3.377 -38.407,11.124 -0.044,-2.022 3.705,-1.962 -1.052,-0.276 0.519,-0.624 -5.595,2.64 -5.249,3.116 -0.998,-0.474 0.88,-1.345 -7.132,-0.212 -3.359,-0.661 -2.95,-0.341 -5.021,-1.506 -0.676,0.465 0.837,1.121 -0.238,0.371 -2.748,0.21 -1.587,0.766 L 8.98,-5.695 9.563,-4.059 8.431,-4.498 5.745,0.453 2.923,1.843 Z" />
      </g>
      <path
         d="m -244.08535,23.713062 -0.32596,1.22802 -1.06222,1.54693 -0.95109,-0.334786 -1.75295,0.03739 -1.0922,-0.712611 -0.38594,1.443567 -0.68015,-0.336903 -0.50765,0.556331 -0.34678,0.9652 -1.20897,0.506941 -0.93909,2.151945 0.11006,1.620661 0.31715,1.192389 -3.02154,-1.695803 -0.37395,0.989542 -3.36126,0.903111 -0.40817,0.16757 0.0374,-0.127706 -1.36349,0.190147 -0.39617,-0.509058 -1.78435,-0.74542 -0.37676,0.07902 -0.72179,1.18992 -0.55915,0.122767 -1.31798,-1.712031 -0.35278,0.684389 -0.86007,-0.02187 -0.0854,1.551164 0.14464,1.64853 1.31269,0.949678 1.61572,0.391936 0.34607,-0.3683 0.54293,0.312914 1.28658,0.480836 1.49683,0.0381 1.44922,-0.885472 3.38454,-0.576086 -0.16686,1.001889 0.99625,1.335264 3.36408,0.796572 6.39304,1.357841 1.85702,-1.525763 2.19076,-0.128764 2.59997,-0.383823 -0.11854,-1.207558 0.81174,-0.662869 1.42699,-0.463197 -0.33584,-0.256117 0.20602,-0.138995 0.024,-0.606425 -0.39547,-1.734255 -0.16439,-1.453092 1.69933,-0.372181 1.23684,-0.0035 -0.4505,-1.145117 0.58596,-0.995539 -1.4231,-2.185458 -0.62619,-2.520597 -3.52496,-0.49777 -2.87584,-0.998361 z m -0.0173,1.402997 0.2794,-1.016 0.77717,0.09031 2.87197,0.997655 3.32246,0.472722 0.57538,2.318103 1.34443,2.080683 -0.56303,0.955322 0.32456,0.825501 -0.75671,0.0049 -2.04858,0.444147 0.2039,1.789289 0.38771,1.707797 -0.0145,0.381353 -0.46532,0.314325 0.19086,0.145344 -0.81774,0.265642 -1.04035,0.835025 0.10337,1.060803 -2.25178,0.333375 -2.28988,0.13335 -1.81469,1.491191 -6.22229,-1.322211 -3.23533,-0.76588 -0.82902,-1.11125 0.2233,-1.342673 -3.90736,0.664281 -1.45274,0.873478 -1.30528,-0.02505 -1.23119,-0.457553 -0.75953,-0.44062 -0.39794,0.424039 -1.31974,-0.308328 -1.15323,-0.834672 -0.13017,-1.461911 0.0667,-1.183922 0.73907,0.0187 0.19967,-0.38735 1.11513,1.449211 0.38065,-0.08326 -0.16404,0.371475 0.31256,0.162631 1.11795,-1.841853 0.11959,-0.0254 1.59668,0.667103 0.46496,0.597606 1.02446,-0.143228 -0.0903,0.307622 1.06645,-0.438856 3.51472,-0.942622 0.29246,-0.7747 3.39301,1.903589 -0.52634,-1.966736 -0.0988,-1.501422 0.84772,-1.943453 1.22414,-0.512939 0.35031,-1.018469 0.30339,-0.333023 0.82832,0.410281 0.37183,-1.389239 0.77505,0.505531 1.79776,-0.03775 1.14617,0.402519 z"
         style="fill:#231f20;fill-opacity:1;fill-rule:nonzero;stroke:none;stroke-width:0.35277775"
         id="path22"
         inkscape:connector-curvature="0" />
    </g>
  </g>
</svg>
